<svg width="130" height="41" viewBox="0 0 130 41" fill="none" xmlns="http://www.w3.org/2000/svg">
<path d="M124.074 30.477C122.528 32.5296 120.079 33.8638 117.321 33.8638C113.249 33.8638 109.847 30.9645 109.074 27.1416H129.512C129.59 26.5771 129.641 26.0639 129.641 25.4995C129.641 18.7516 124.151 13.2609 117.347 13.2609C110.568 13.2609 105.053 18.7259 105.053 25.4995C105.053 32.2474 110.543 37.7381 117.347 37.7381C122.347 37.7381 126.651 34.7618 128.559 30.5027H124.074V30.477ZM117.321 17.0838C121.419 17.0838 124.847 20.0088 125.595 23.8831H109.048C109.795 20.0088 113.223 17.0838 117.321 17.0838ZM94.6916 30.477C93.1452 32.5296 90.6967 33.8638 87.9388 33.8638C83.8666 33.8638 80.4644 30.9645 79.6912 27.1416H100.13C100.207 26.5771 100.259 26.0639 100.259 25.4995C100.259 18.7516 94.7689 13.2609 87.9646 13.2609C81.1861 13.2609 75.6704 18.7259 75.6704 25.4995C75.6704 32.2474 81.1603 37.7381 87.9646 37.7381C92.9648 37.7381 97.269 34.7618 99.1763 30.5027H94.6916V30.477ZM87.9388 17.0838C92.0369 17.0838 95.4648 20.0088 96.2123 23.8831H79.6654C80.4128 20.0088 83.8408 17.0838 87.9388 17.0838ZM71.2373 37.5328H43.7622L65.2062 4.92218H44.9478V1.07356H72.3456L50.9016 33.6842H71.2373V37.5328ZM39.1229 37.071C37.8084 38.9953 36.1074 40.0473 33.9939 40.5348C32.1382 40.9709 30.3598 40.6374 28.6845 39.7394C27.7308 39.2262 26.7772 38.7644 25.7978 38.3282C24.6122 37.7894 23.4008 37.5585 22.0863 37.6611C21.1069 37.8151 20.0759 37.9177 19.045 37.9177C8.73539 37.9177 0.358845 29.6047 0.358845 19.316C0.358845 9.02738 8.73539 0.714355 19.0708 0.714355C29.3804 0.714355 37.7569 9.02738 37.7569 19.316C37.7569 24.037 35.9785 28.3731 33.066 31.6573L29.8443 29.8099C32.499 27.1159 34.1485 23.3956 34.1485 19.316C34.1485 11.0543 27.3958 4.3064 19.0708 4.3064C10.7458 4.3064 3.99298 11.0287 3.99298 19.316C3.99298 27.6034 10.7458 34.3256 19.0708 34.3256C19.4831 34.3256 19.8955 34.3 20.3079 34.2743C20.4626 34.2487 20.6172 34.1974 20.7718 34.146C21.8801 33.6842 22.9626 33.479 24.0451 33.5046C25.4369 33.5046 26.803 33.8895 28.1432 34.5566C29.2515 35.0954 30.3598 35.6598 31.4938 36.1217C34.1743 37.1993 36.1331 37.4302 39.1229 37.071Z" fill="#FFC700"/>
</svg>
